<svg xmlns="http://www.w3.org/2000/svg" xmlns:xlink="http://www.w3.org/1999/xlink" id="Layer_1" x="0px" y="0px" viewBox="0 0 210 31.73" style="enable-background:new 0 0 210 31.73;" xml:space="preserve">
<style type="text/css">
	.Drop_x0020_Shadow{fill:none;}
	.Round_x0020_Corners_x0020_2_x0020_pt{fill:#FFFFFF;stroke:#000000;stroke-miterlimit:10;}
	.Live_x0020_Reflect_x0020_X{fill:none;}
	.Bevel_x0020_Soft{fill:url(#SVGID_1_);}
	.Dusk{fill:#FFFFFF;}
	.Foliage_GS{fill:#FFE501;}
	.Pompadour_GS{fill-rule:evenodd;clip-rule:evenodd;fill:#5BA4CC;}
	.st0{fill:#4D4D4D;}
	.st1{fill:#007FD3;}
</style>
<linearGradient id="SVGID_1_" gradientUnits="userSpaceOnUse" x1="0" y1="-4.1392" x2="0.7071" y2="-3.4321">
	<stop offset="0" style="stop-color:#E1DFDF"></stop>
	<stop offset="0.1638" style="stop-color:#DDDBDB"></stop>
	<stop offset="0.3317" style="stop-color:#D1CFCF"></stop>
	<stop offset="0.5016" style="stop-color:#BCBABA"></stop>
	<stop offset="0.6727" style="stop-color:#A09D9D"></stop>
	<stop offset="0.8432" style="stop-color:#7B7979"></stop>
	<stop offset="1" style="stop-color:#535050"></stop>
</linearGradient>
<g id="Layer_2_1_">
	<g>
		<path class="st0" d="M0,16.34c0-8.1,6.18-14,14.51-14c4.23,0,7.9,1.44,10.41,4.27l-2.54,2.47c-2.11-2.23-4.7-3.24-7.71-3.24    c-6.18,0-10.76,4.46-10.76,10.52s4.57,10.52,10.76,10.52c3.01,0,5.6-1.06,7.71-3.29l2.54,2.47c-2.5,2.81-6.18,4.3-10.44,4.3    C6.18,30.34,0,24.43,0,16.34z"></path>
		<path class="st0" d="M89.15,16.18h3.76v10.68c-2.74,2.31-6.53,3.48-10.37,3.48c-8.41,0-14.59-5.9-14.59-14s6.18-14,14.67-14    c4.34,0,8.02,1.44,10.52,4.23L90.72,9c-2.27-2.19-4.85-3.17-7.94-3.17c-6.34,0-10.91,4.42-10.91,10.52    c0,6.03,4.57,10.52,10.87,10.52c2.31,0,4.46-0.51,6.41-1.76V16.18z"></path>
		<path class="st0" d="M126.39,2.64v27.38h-3.2L106.76,9.6v20.42h-3.91V2.64h3.21l16.43,20.41V2.64H126.39z"></path>
		<path class="st0" d="M137.89,2.64h3.91v27.38h-3.91V2.64z"></path>
		<path class="st0" d="M170.37,30.02l-5.91-8.41c-0.55,0.04-1.14,0.08-1.72,0.08h-6.77v8.33h-3.91V2.64h10.68    c7.12,0,11.42,3.6,11.42,9.54c0,4.23-2.19,7.27-6.03,8.64l6.5,9.19C174.63,30.02,170.37,30.02,170.37,30.02z M170.26,12.19    c0-3.91-2.62-6.14-7.63-6.14h-6.65v12.32h6.65C167.63,18.37,170.26,16.1,170.26,12.19z"></path>
		<path class="st0" d="M202.88,23.18h-14.55l-3.01,6.84h-4.03l12.4-27.38h3.87L210,30.02h-4.11L202.88,23.18z M201.51,20.05    L195.6,6.64l-5.91,13.41H201.51z"></path>
		<g>
			<path class="st1" d="M53.79,16.92c-0.35,5.37-4.81,9.64-10.26,9.64c-5.68,0-10.3-4.62-10.3-10.3s4.62-10.31,10.3-10.31     c3.99,0,7.45,2.28,9.16,5.61l3.04-2.22c-2.41-4.25-6.97-7.12-12.2-7.12c-7.74,0-14.03,6.3-14.03,14.03s6.3,14.03,14.03,14.03     s14.03-6.3,14.03-14.03c0-0.67-0.06-1.33-0.16-1.98L53.79,16.92z"></path>
			<path class="st1" d="M60.09,6.49c-1.55,0-2.8,1.25-2.8,2.8c0,0.16,0.02,0.31,0.05,0.47l-9.56,6.98c-0.44-0.27-0.95-0.44-1.5-0.44     c-0.33,0-0.65,0.07-0.94,0.18l-1.88-2.09c0.05-0.2,0.07-0.41,0.07-0.63c0-1.55-1.25-2.8-2.8-2.8c-1.53,0-2.77,1.23-2.79,2.77     l-3.46,2.53c0,0.96,0.16,1.89,0.44,2.75l4.14-3.03c0.47,0.35,1.04,0.57,1.68,0.57c0.4,0,0.78-0.09,1.12-0.24l1.77,1.96     c-0.08,0.26-0.14,0.53-0.14,0.82c0,1.55,1.25,2.8,2.8,2.8c1.55,0,2.8-1.25,2.8-2.8c0-0.07-0.01-0.14-0.02-0.21l9.75-7.12     c0.38,0.2,0.82,0.32,1.28,0.32c1.55,0,2.8-1.25,2.8-2.8C62.88,7.74,61.63,6.49,60.09,6.49z"></path>
		</g>
	</g>
</g>
</svg>