<svg xmlns="http://www.w3.org/2000/svg" xmlns:xlink="http://www.w3.org/1999/xlink" id="Component_19_1" data-name="Component 19 &#x2013; 1" width="290" height="70.093" viewBox="0 0 290 70.093"><defs><clipPath id="clip-path"><rect id="Rectangle_8" data-name="Rectangle 8" width="290" height="70.093" fill="#fff"></rect></clipPath></defs><g id="Group_2" data-name="Group 2" clip-path="url(#clip-path)"><path id="Path_9" data-name="Path 9" d="M0,19.6C0,8.419,8.535.262,20.039.262c5.834,0,10.912,2,14.368,5.887l-3.51,3.4A14.013,14.013,0,0,0,20.256,5.069C11.721,5.069,5.4,11.227,5.4,19.6s6.319,14.53,14.853,14.53A14.061,14.061,0,0,0,30.9,29.591l3.51,3.4c-3.457,3.889-8.535,5.941-14.422,5.941C8.535,38.936,0,30.781,0,19.6" transform="translate(0 -0.113)" fill="#fff"></path><path id="Path_10" data-name="Path 10" d="M193.924,19.384h5.185V34.129A22.337,22.337,0,0,1,184.8,38.936c-11.613,0-20.146-8.155-20.146-19.337S173.183.262,184.9.262c6,0,11.073,2,14.53,5.834l-3.349,3.349a14.987,14.987,0,0,0-10.964-4.376c-8.751,0-15.07,6.1-15.07,14.53,0,8.318,6.319,14.53,15.017,14.53a16,16,0,0,0,8.857-2.431Z" transform="translate(-70.812 -0.113)" fill="#fff"></path><path id="Path_11" data-name="Path 11" d="M281.7,1.023V38.832h-4.428l-22.686-28.2v28.2h-5.4V1.023h4.429L276.3,29.217V1.023Z" transform="translate(-107.167 -0.44)" fill="#fff"></path><rect id="Rectangle_3" data-name="Rectangle 3" width="5.402" height="37.809" transform="translate(190.417 0.583)" fill="#fff"></rect><path id="Path_12" data-name="Path 12" d="M393.73,38.832l-8.157-11.614c-.756.056-1.567.109-2.377.109h-9.344v11.5h-5.4V1.023H383.2c9.83,0,15.773,4.969,15.773,13.179,0,5.834-3.026,10.047-8.318,11.936l8.966,12.694Zm-.163-24.63c0-5.4-3.618-8.481-10.532-8.481h-9.183V22.735h9.183c6.914,0,10.532-3.133,10.532-8.533" transform="translate(-158.462 -0.44)" fill="#fff"></path><path id="Path_13" data-name="Path 13" d="M469.09,29.379H449l-4.159,9.452h-5.564L456.4,1.022h5.348l17.177,37.809h-5.672Zm-1.89-4.322L459.043,6.531l-8.157,18.526Z" transform="translate(-188.921 -0.44)" fill="#fff"></path><path id="Path_14" data-name="Path 14" d="M105.023,20.294a14.221,14.221,0,1,1-1.529-7.393l4.2-3.066a20.027,20.027,0,1,0,2.317,6.816Z" transform="translate(-30.737)" fill="#fff"></path><path id="Path_15" data-name="Path 15" d="M118.9,10.328a3.809,3.809,0,0,0-3.8,4.514l-13.2,9.647a3.747,3.747,0,0,0-3.368-.368l-2.6-2.884a3.86,3.86,0,1,0-7.62-.91l-4.781,3.494a12.409,12.409,0,0,0,.613,3.807l5.713-4.175a3.807,3.807,0,0,0,3.862.46l2.439,2.7a3.823,3.823,0,0,0-.187,1.13,3.865,3.865,0,1,0,7.73,0c0-.1-.022-.194-.03-.293l13.466-9.84a3.824,3.824,0,0,0,1.767.446,3.865,3.865,0,1,0,0-7.73" transform="translate(-35.922 -4.442)" fill="#fff"></path><path id="Path_16" data-name="Path 16" d="M18.654,106.178l-1.023,1.274a4.053,4.053,0,0,0-2.89-1.319,3.653,3.653,0,1,0,0,7.305,4.288,4.288,0,0,0,2.89-1.23l1.037,1.156a5.884,5.884,0,0,1-4.016,1.7,5.249,5.249,0,1,1,.059-10.492,5.728,5.728,0,0,1,3.942,1.6" transform="translate(-3.982 -44.977)" fill="#fff"></path><path id="Path_17" data-name="Path 17" d="M42.146,109.809a5.308,5.308,0,0,1-5.5,5.26,5.251,5.251,0,1,1,0-10.491,5.285,5.285,0,0,1,5.5,5.231m-9.217,0a3.719,3.719,0,0,0,3.735,3.69,3.676,3.676,0,1,0-3.735-3.69" transform="translate(-13.397 -44.977)" fill="#fff"></path><path id="Path_18" data-name="Path 18" d="M65.126,109.9v3.823a7.033,7.033,0,0,1-4.03,1.348,5.252,5.252,0,1,1,.1-10.491,6.223,6.223,0,0,1,3.986,1.452l-.993,1.289a4.508,4.508,0,0,0-2.993-1.185,3.684,3.684,0,1,0,.015,7.365,4.826,4.826,0,0,0,2.386-.711V109.9Z" transform="translate(-23.93 -44.977)" fill="#fff"></path><path id="Path_19" data-name="Path 19" d="M88.06,115.029l-5.527-7.439v7.439H80.785V104.656H82.5l5.557,7.454v-7.454H89.78v10.373Z" transform="translate(-34.744 -45.01)" fill="#fff"></path><rect id="Rectangle_4" data-name="Rectangle 4" width="1.748" height="10.373" transform="translate(60.148 59.646)" fill="#fff"></rect><path id="Path_20" data-name="Path 20" d="M120.414,106.227v8.8h-1.749v-8.8h-3.275v-1.571H123.7v1.571Z" transform="translate(-49.627 -45.01)" fill="#fff"></path><rect id="Rectangle_5" data-name="Rectangle 5" width="1.749" height="10.373" transform="translate(77.944 59.646)" fill="#fff"></rect><path id="Path_21" data-name="Path 21" d="M150.594,115.029l-4.134-10.373h1.882l3.2,8.432,3.231-8.432H156.6L152.4,115.029Z" transform="translate(-62.989 -45.01)" fill="#fff"></path><path id="Path_22" data-name="Path 22" d="M172.622,106.227v2.8h5.068V110.6h-5.068v2.86h5.838v1.571h-7.587V104.656h7.41v1.571Z" transform="translate(-73.489 -45.01)" fill="#fff"></path><path id="Path_23" data-name="Path 23" d="M207.64,111.888c-.148.015-.311.015-.474.015h-2.46v3.127h-1.749V104.656h4.208c2.652,0,4.179,1.29,4.179,3.542a3.332,3.332,0,0,1-2.148,3.364l2.326,3.467h-1.986Zm-.474-1.556c1.6,0,2.519-.682,2.519-2.089,0-1.364-.919-2.015-2.519-2.015h-2.46v4.1Z" transform="translate(-87.287 -45.01)" fill="#fff"></path><path id="Path_24" data-name="Path 24" d="M227.663,106.227v2.8h5.068V110.6h-5.068v2.86H233.5v1.571h-7.587V104.656h7.41v1.571Z" transform="translate(-97.16 -45.01)" fill="#fff"></path><path id="Path_25" data-name="Path 25" d="M250,106.227v8.8h-1.749v-8.8h-3.275v-1.571h8.312v1.571Z" transform="translate(-105.357 -45.01)" fill="#fff"></path><path id="Path_26" data-name="Path 26" d="M265,112.687l-.992,2.342h-1.823l4.579-10.373h1.792l4.535,10.373h-1.867l-.993-2.342Zm2.608-6.164-1.956,4.609h3.912Z" transform="translate(-112.759 -45.01)" fill="#fff"></path><rect id="Rectangle_6" data-name="Rectangle 6" width="1.749" height="10.373" transform="translate(164.08 59.646)" fill="#fff"></rect><path id="Path_27" data-name="Path 27" d="M306.149,113.444v1.586H299.91V104.656h1.748v8.788Z" transform="translate(-128.984 -45.01)" fill="#fff"></path><path id="Path_28" data-name="Path 28" d="M329.271,112.687l-.992,2.342h-1.823l4.579-10.373h1.792l4.535,10.373H335.5l-.993-2.342Zm2.608-6.164-1.956,4.609h3.913Z" transform="translate(-140.401 -45.01)" fill="#fff"></path><path id="Path_29" data-name="Path 29" d="M359.445,115.029l-5.527-7.439v7.439h-1.749V104.656h1.719l5.557,7.454v-7.454h1.719v10.373Z" transform="translate(-151.46 -45.01)" fill="#fff"></path><path id="Path_30" data-name="Path 30" d="M377.37,112.687l-.992,2.342h-1.823l4.579-10.373h1.792l4.535,10.373h-1.867l-.993-2.342Zm2.608-6.164-1.956,4.609h3.913Z" transform="translate(-161.087 -45.01)" fill="#fff"></path><path id="Path_31" data-name="Path 31" d="M406.508,113.444v1.586H400.27V104.656h1.748v8.788Z" transform="translate(-172.147 -45.01)" fill="#fff"></path><path id="Path_32" data-name="Path 32" d="M421.549,115.029h-1.734v-3.393l-3.867-6.98h1.763l2.964,5.054,2.9-5.054h1.778l-3.808,6.92Z" transform="translate(-178.889 -45.01)" fill="#fff"></path><path id="Path_33" data-name="Path 33" d="M441.9,106.227v8.8h-1.749v-8.8h-3.275v-1.571h8.312v1.571Z" transform="translate(-187.891 -45.01)" fill="#fff"></path><rect id="Rectangle_7" data-name="Rectangle 7" width="1.749" height="10.373" transform="translate(261.166 59.646)" fill="#fff"></rect><path id="Path_34" data-name="Path 34" d="M478.147,106.178l-1.023,1.274a4.052,4.052,0,0,0-2.889-1.319,3.653,3.653,0,1,0,0,7.305,4.288,4.288,0,0,0,2.889-1.23l1.037,1.156a5.884,5.884,0,0,1-4.016,1.7,5.249,5.249,0,1,1,.059-10.492,5.725,5.725,0,0,1,3.942,1.6" transform="translate(-201.599 -44.977)" fill="#fff"></path><path id="Path_35" data-name="Path 35" d="M498.843,105.593l-.726,1.541a6.209,6.209,0,0,0-3.038-.963c-1.022,0-1.689.385-1.689,1.081,0,2.268,5.6,1.053,5.586,4.787,0,1.852-1.63,2.993-3.912,2.993a6.38,6.38,0,0,1-4.238-1.644l.756-1.512a5.467,5.467,0,0,0,3.512,1.512c1.216,0,1.941-.459,1.941-1.26,0-2.312-5.6-1.022-5.6-4.713,0-1.778,1.526-2.89,3.779-2.89a6.759,6.759,0,0,1,3.63,1.067" transform="translate(-211.093 -44.954)" fill="#fff"></path></g></svg>